<?xml version="1.0" encoding="UTF-8"?>
<svg width="14px" height="14px" viewBox="0 0 14 14" version="1.1" xmlns="http://www.w3.org/2000/svg" xmlns:xlink="http://www.w3.org/1999/xlink">
    <title>CD5A8032-89AA-4B22-A96F-1559EDC90797</title>
    <g id="Page-1" stroke="none" stroke-width="1" fill="none" fill-rule="evenodd">
        <g id="SelfDrive_SRP_close_without-Fuel-with-gosafe" transform="translate(-16.000000, -213.000000)" fill="#647A97" fill-rule="nonzero">
            <g id="Group-37" transform="translate(-0.000000, 102.000000)">
                <g id="Group-44" transform="translate(16.000000, 16.000000)">
                    <g id="Group-6" transform="translate(0.000000, 95.000000)">
                        <path d="M3.27484131,5.59457396 C3.27484131,6.87364196 4.31539916,7.91419984 5.59446716,7.91419984 C5.89599609,7.91419984 6.14027405,8.1585846 6.14027405,8.46000671 C6.14027405,8.76153564 5.89599609,9.00581361 5.59446716,9.00581361 C3.71351624,9.00581361 2.18322754,7.4755249 2.18322754,5.59457396 C2.18322754,3.71351624 3.71351624,2.18322754 5.59446716,2.18322754 C7.4755249,2.18322754 9.00581361,3.71351624 9.00581361,5.59457396 C9.00581361,5.89599609 8.76142884,6.14038086 8.46000671,6.14038086 C8.1585846,6.14038086 7.91419984,5.89599609 7.91419984,5.59457396 C7.91419984,4.31550599 6.87353516,3.27484131 5.59446716,3.27484131 C4.31539916,3.27484131 3.27484131,4.31550599 3.27484131,5.59457396 Z M3.70368958,10.4221344 C2.30307005,8.88842773 1.09353639,7.56375123 1.09161377,5.5892334 C1.09449769,3.10928346 3.11451722,1.09161377 5.59446716,1.09161377 C8.07452393,1.09161377 10.0944367,3.10928346 10.0973206,5.5892334 C10.0977478,5.8905487 10.3420257,6.13450622 10.6431274,6.13439941 L10.6437683,6.13439941 C10.9451904,6.13407897 11.1893616,5.88937377 11.1889349,5.58795166 C11.1872253,4.09494017 10.6045685,2.69165039 9.54820251,1.63645934 C8.49183655,0.581161492 7.08769225,0 5.59446716,0 C4.10134889,0 2.69720459,0.581161492 1.6407318,1.63645934 C0.584472656,2.69165039 0.00170898437,4.09494017 -1.0125234e-13,5.58912659 C0.00106811523,6.67678834 0.303131117,7.69726562 0.92359925,8.70887757 C1.46075439,9.58483887 2.15866087,10.3490753 2.89758301,11.1582794 C3.62197877,11.9516754 4.37115479,12.7719879 4.96940612,13.7185516 C5.07322692,13.8828278 5.25021361,13.9727631 5.43125915,13.9727631 C5.53102112,13.9727631 5.6318512,13.9455261 5.72242737,13.8882751 C5.97717285,13.7272034 6.05322266,13.3901062 5.89215088,13.1352539 C5.24230957,12.107193 4.46012878,11.2505646 3.70368958,10.4221344 Z M13.8296356,10.6840363 C13.7219696,10.8018494 13.5745697,10.861557 13.4267425,10.861557 C13.2951507,10.861557 13.1632385,10.8143463 13.0585632,10.7186432 L12.9902038,10.6561585 L12.9902038,12.4622345 C12.9902038,13.3102112 12.3008423,14 11.4536133,14 L8.38641357,14 C7.53918457,14 6.84982298,13.3102112 6.84982298,12.4622345 L6.84982298,10.6811523 L6.80880736,10.7186432 C6.58631898,10.9221191 6.24110413,10.9066315 6.03762819,10.6841431 C5.83425905,10.4616547 5.84974671,10.116333 6.07223509,9.91296387 L8.88938903,7.3373108 C9.48475648,6.79310609 10.3826141,6.79310609 10.9778747,7.3373108 L12.7828827,8.98765563 C12.8028564,9.00346374 12.8216553,9.02066041 12.8391724,9.03903197 L13.7951355,9.91296387 C14.0176239,10.116333 14.0331116,10.4616547 13.8296356,10.6840363 Z" id="icn_homedelivered"></path>
                    </g>
                </g>
            </g>
        </g>
    </g>
</svg>