<?xml version="1.0" encoding="UTF-8"?>
<svg width="14px" height="14px" viewBox="0 0 14 14" version="1.1" xmlns="http://www.w3.org/2000/svg" xmlns:xlink="http://www.w3.org/1999/xlink">
    <title>E920D8C7-F852-4102-BB13-DAAA43522C27</title>
    <g id="Page-1" stroke="none" stroke-width="1" fill="none" fill-rule="evenodd">
        <g id="SelfDrive_SRP_close_without-Fuel-with-gosafe" transform="translate(-16.000000, -338.000000)" fill="#647A97" fill-rule="nonzero">
            <g id="Group-38" transform="translate(-0.000000, 251.000000)">
                <g id="Group-36" transform="translate(16.000000, 16.000000)">
                    <g id="Group-7" transform="translate(0.000000, 71.000000)">
                        <path d="M13.3198696,3.171875 C13.6219087,3.171875 13.8667446,3.41671094 13.8667446,3.71875 L13.8667446,3.71875 L13.8667446,11.4296875 C13.8667446,12.304168 13.3002386,13.0061427 12.4257581,13.0061427 C11.5512776,13.0061427 11.0386055,12.304168 11.0386055,11.4296875 L11.0386055,11.4296875 L11.0386055,8.640625 L10.3034347,8.640625 L10.3034347,13.453125 C10.3034347,13.7551641 10.0585988,14 9.75655971,14 L9.75655971,14 L1.00655971,14 L10.3034347,3.71875 L10.3034347,7.546875 L11.5854805,7.546875 C11.8875195,7.546875 12.1323555,7.79171094 12.1323555,8.09375 L12.1323555,8.09375 L12.1323555,11.4296875 C12.1323555,11.7010742 12.1543714,11.8911855 12.4257581,11.8911855 C12.6971448,11.8911855 12.7729946,11.7010742 12.7729946,11.4296875 L12.7729946,11.4296875 L12.7729946,4.265625 L11.5854805,4.265625 C11.2834414,4.265625 11.0386055,4.02078906 11.0386055,3.71875 C11.0386055,3.41671094 11.2834414,3.171875 11.5854805,3.171875 L11.5854805,3.171875 Z M9.75655971,5.68434189e-14 C10.0283949,5.68434189e-14 10.2538955,0.198317109 10.2962773,0.458167008 L10.3034347,0.546875 L10.303,0.791 L11.0147964,0 L12.4596847,0 L0.055875984,13.9446581 L-1.09245946e-13,12.2611627 L0.459,11.75 L0.459684709,0.546875 C0.459684709,0.275039844 0.658001818,0.0495392188 0.917851716,0.00715744531 L1.00655971,5.68434189e-14 L9.75655971,5.68434189e-14 Z M6.95968471,2 L2.95968471,2 C2.68353471,2 2.45968471,2.22108642 2.45968471,2.49382716 L2.45968471,5.50617284 C2.45968471,5.77891358 2.68353471,6 2.95968471,6 L5.765,5.843 L7.459,3.957 L7.45968471,2.49382716 C7.45968471,2.22108642 7.23583471,2 6.95968471,2 Z M6.45968471,2.98765432 L6.45968471,5.01234568 L3.45968471,5.01234568 L3.45968471,2.98765432 L6.45968471,2.98765432 Z" id="Combined-Shape"></path>
                    </g>
                </g>
            </g>
        </g>
    </g>
</svg>